<?xml version="1.0" encoding="UTF-8" standalone="no"?>
<!DOCTYPE svg PUBLIC "-//W3C//DTD SVG 1.1//EN" "http://www.w3.org/Graphics/SVG/1.1/DTD/svg11.dtd">
<svg width="100%" height="100%" viewBox="0 0 47 63" version="1.1" xmlns="http://www.w3.org/2000/svg" xmlns:xlink="http://www.w3.org/1999/xlink" xml:space="preserve" xmlnsserif="http://www.serif.com/" style="fill-rule:evenodd;clip-rule:evenodd;stroke-linejoin:round;stroke-miterlimit:2;">
    <g transform="matrix(1,0,0,1,0.0539455,-0.004)">
        <g transform="matrix(1,0,0,1,-798.514,-8225.27)">
            <g id="Group_1226" transform="matrix(1,0,0,1,798.514,8225.27)">
                <g id="Path_11518" transform="matrix(1,0,0,1,-319.514,-8221.27)">
                    <path d="M347.88,8221.35C344.39,8221.65 341.58,8222.99 336.944,8224.41C336.127,8224.66 329.533,8226.19 325.256,8225.91C324.609,8225.87 323.967,8225.77 323.338,8225.62C323.099,8225.56 322.853,8225.53 322.607,8225.53C320.921,8225.53 319.529,8226.91 319.514,8228.59L319.514,8228.64C319.478,8228.94 319.46,8229.25 319.46,8229.55C319.46,8233.77 322.93,8237.24 327.147,8237.24C327.538,8237.24 327.928,8237.21 328.314,8237.15L328.346,8237.15C330.61,8237.27 341.788,8233.77 346.371,8233.44C346.431,8233.44 346.491,8233.43 346.552,8233.43C349.755,8233.43 352.391,8236.07 352.391,8239.27C352.391,8239.3 352.39,8239.34 352.39,8239.36C352.34,8241.76 350.874,8243.92 348.661,8244.84C346.502,8245.83 341.917,8247.35 341.917,8247.35L339.873,8248.57L330.497,8254.27C329.773,8254.76 329.284,8255.53 329.152,8256.39L328.432,8261.06C328.375,8261.42 328.385,8261.8 328.461,8262.16L328.784,8263.72C328.838,8263.98 328.859,8264.25 328.845,8264.51C328.799,8265.47 328.712,8267.72 329.058,8266.21C329.489,8264.33 332.15,8263.16 332.873,8262.78C339.764,8259.12 354.839,8253.16 356.059,8252.68C356.113,8252.66 356.164,8252.64 356.217,8252.61C362.077,8249.96 365.859,8244.1 365.859,8237.67C365.859,8229.78 360.158,8222.95 352.39,8221.53C351.427,8221.36 350.451,8221.28 349.473,8221.27C348.937,8221.27 348.406,8221.31 347.884,8221.35" style="fill:url(#_Linear1);fill-rule:nonzero;"/>
                </g>
                <g id="Path_11519" transform="matrix(1,0,0,1,-323.632,-8225.75)">
                    <path d="M346.427,8251.65L333.5,8259.72L332.857,8263.9L333.074,8270.94C333.159,8270.82 333.222,8270.69 333.261,8270.55C333.691,8268.67 336.328,8267.57 337.05,8267.18C344.221,8263.37 360.272,8257.07 360.272,8257.07C366.166,8254.44 369.981,8248.57 369.981,8242.11C369.942,8239.94 369.512,8237.8 368.711,8235.78C368.343,8253.91 346.427,8251.65 346.427,8251.65" style="fill:url(#_Linear2);fill-rule:nonzero;"/>
                </g>
                <g id="Path_11520" transform="matrix(1,0,0,1,-323.529,-8230.91)">
                    <path d="M346,8257.12L342.959,8258.82L337.759,8261.9L332.526,8272.17L332.884,8273.9C332.884,8273.9 332.645,8277.86 333.076,8275.99C333.507,8274.1 336.163,8272.95 336.885,8272.56C344.433,8268.76 352.186,8265.39 360.107,8262.45C364.423,8260.65 367.704,8257 369.031,8252.51C360.41,8264.51 345.999,8257.12 345.999,8257.12" style="fill:url(#_Linear3);fill-rule:nonzero;"/>
                </g>
                <g id="Path_11521" transform="matrix(1,0,0,1,-320.134,-8229.54)">
                    <path d="M338.669,8248.24C332.528,8250.76 325.646,8255.72 322.798,8265.46C319.651,8276.21 322.458,8284.36 329.746,8291.49C330.246,8291.97 330.916,8292.24 331.614,8292.24C333.083,8292.24 334.292,8291.03 334.292,8289.57C334.292,8289.23 334.227,8288.89 334.102,8288.58C331.301,8281.31 331.06,8273.31 333.418,8265.89C334.896,8260.72 337.599,8255.98 341.298,8252.08C341.715,8251.64 341.948,8251.05 341.948,8250.44C341.948,8249.15 340.898,8248.08 339.604,8248.05C339.283,8248.05 338.966,8248.12 338.67,8248.24" style="fill:url(#_Linear4);fill-rule:nonzero;"/>
                </g>
            </g>
        </g>
    </g>
    <defs>
        <linearGradient id="_Linear1" x1="0" y1="0" x2="1" y2="0" gradientUnits="userSpaceOnUse" gradientTransform="matrix(365.859,0,0,365.859,-5.68434e-14,8244)"><stop offset="0" style="stop-color:rgb(56,239,125);stop-opacity:1"/><stop offset="1" style="stop-color:rgb(17,153,142);stop-opacity:1"/></linearGradient>
        <linearGradient id="_Linear2" x1="0" y1="0" x2="1" y2="0" gradientUnits="userSpaceOnUse" gradientTransform="matrix(369.981,0,0,369.981,0,8253.36)"><stop offset="0" style="stop-color:rgb(17,153,142);stop-opacity:1"/><stop offset="1" style="stop-color:rgb(33,204,126);stop-opacity:1"/></linearGradient>
        <linearGradient id="_Linear3" x1="0" y1="0" x2="1" y2="0" gradientUnits="userSpaceOnUse" gradientTransform="matrix(369.031,0,0,369.031,0,8264.5)"><stop offset="0" style="stop-color:rgb(17,153,142);stop-opacity:1"/><stop offset="1" style="stop-color:rgb(56,239,125);stop-opacity:1"/></linearGradient>
        <linearGradient id="_Linear4" x1="0" y1="0" x2="1" y2="0" gradientUnits="userSpaceOnUse" gradientTransform="matrix(-0.385,0.427,-0.427,-0.385,0.627,0.353)"><stop offset="0" style="stop-color:rgb(56,239,125);stop-opacity:1"/><stop offset="1" style="stop-color:rgb(17,153,142);stop-opacity:1"/></linearGradient>
    </defs>
</svg>
